<svg width="100%" height="100%" viewBox="0 0 51 48" fill="none" xmlns="http://www.w3.org/2000/svg">
<path d="M8.05824 35.2727V44H6.46449L2.66761 38.5071H2.60369V44H0.758523V35.2727H2.37784L6.14489 40.7614H6.22159V35.2727H8.05824ZM11.906 44.1278C11.2441 44.1278 10.6717 43.9872 10.1887 43.706C9.70859 43.4219 9.33785 43.027 9.07649 42.5213C8.81513 42.0128 8.68445 41.4233 8.68445 40.7528C8.68445 40.0767 8.81513 39.4858 9.07649 38.9801C9.33785 38.4716 9.70859 38.0767 10.1887 37.7955C10.6717 37.5114 11.2441 37.3693 11.906 37.3693C12.568 37.3693 13.139 37.5114 13.6191 37.7955C14.1021 38.0767 14.4742 38.4716 14.7356 38.9801C14.9969 39.4858 15.1276 40.0767 15.1276 40.7528C15.1276 41.4233 14.9969 42.0128 14.7356 42.5213C14.4742 43.027 14.1021 43.4219 13.6191 43.706C13.139 43.9872 12.568 44.1278 11.906 44.1278ZM11.9146 42.7216C12.2157 42.7216 12.4671 42.6364 12.6688 42.4659C12.8705 42.2926 13.0225 42.0568 13.1248 41.7585C13.2299 41.4602 13.2825 41.1207 13.2825 40.7401C13.2825 40.3594 13.2299 40.0199 13.1248 39.7216C13.0225 39.4233 12.8705 39.1875 12.6688 39.0142C12.4671 38.8409 12.2157 38.7543 11.9146 38.7543C11.6106 38.7543 11.3549 38.8409 11.1475 39.0142C10.943 39.1875 10.7881 39.4233 10.683 39.7216C10.5808 40.0199 10.5296 40.3594 10.5296 40.7401C10.5296 41.1207 10.5808 41.4602 10.683 41.7585C10.7881 42.0568 10.943 42.2926 11.1475 42.4659C11.3549 42.6364 11.6106 42.7216 11.9146 42.7216ZM19.7646 35.2727V44H17.9195V35.2727H19.7646ZM20.6487 44V37.4545H22.3788V38.6094H22.4555C22.5918 38.2259 22.8191 37.9233 23.1373 37.7017C23.4555 37.4801 23.8362 37.3693 24.2793 37.3693C24.7282 37.3693 25.1103 37.4815 25.4256 37.706C25.741 37.9276 25.9512 38.2287 26.0563 38.6094H26.1245C26.258 38.2344 26.4995 37.9347 26.8489 37.7102C27.2012 37.483 27.6174 37.3693 28.0975 37.3693C28.7083 37.3693 29.204 37.5639 29.5847 37.9531C29.9683 38.3395 30.16 38.8878 30.16 39.598V44H28.3489V39.956C28.3489 39.5923 28.2523 39.3196 28.0592 39.1378C27.866 38.956 27.6245 38.8651 27.3347 38.8651C27.0052 38.8651 26.7481 38.9702 26.5634 39.1804C26.3788 39.3878 26.2864 39.6619 26.2864 40.0028V44H24.5265V39.9176C24.5265 39.5966 24.4342 39.3409 24.2495 39.1506C24.0677 38.9602 23.8276 38.8651 23.5293 38.8651C23.3276 38.8651 23.1458 38.9162 22.9839 39.0185C22.8248 39.1179 22.6984 39.2585 22.6046 39.4403C22.5109 39.6193 22.464 39.8295 22.464 40.071V44H20.6487ZM32.8604 44.1236C32.4428 44.1236 32.0707 44.0511 31.744 43.9062C31.4173 43.7585 31.1587 43.5412 30.9684 43.2543C30.7809 42.9645 30.6871 42.6037 30.6871 42.1719C30.6871 41.8082 30.7539 41.5028 30.8874 41.2557C31.021 41.0085 31.2028 40.8097 31.4329 40.6591C31.663 40.5085 31.9244 40.3949 32.217 40.3182C32.5124 40.2415 32.8221 40.1875 33.146 40.1562C33.5266 40.1165 33.8335 40.0795 34.0664 40.0455C34.2994 40.0085 34.4684 39.9545 34.5735 39.8835C34.6786 39.8125 34.7312 39.7074 34.7312 39.5682V39.5426C34.7312 39.2727 34.646 39.0639 34.4755 38.9162C34.3079 38.7685 34.0692 38.6946 33.7596 38.6946C33.4329 38.6946 33.1729 38.767 32.9798 38.9119C32.7866 39.054 32.6587 39.233 32.5962 39.4489L30.9173 39.3125C31.0025 38.9148 31.1701 38.571 31.4201 38.2812C31.6701 37.9886 31.9925 37.7642 32.3874 37.608C32.7852 37.4489 33.2454 37.3693 33.7681 37.3693C34.1317 37.3693 34.4798 37.4119 34.8121 37.4972C35.1474 37.5824 35.4442 37.7145 35.7028 37.8935C35.9641 38.0724 36.1701 38.3026 36.3207 38.5838C36.4712 38.8622 36.5465 39.196 36.5465 39.5852V44H34.8249V43.0923H34.7738C34.6687 43.2969 34.5281 43.4773 34.3519 43.6335C34.1758 43.7869 33.9641 43.9077 33.717 43.9957C33.4698 44.081 33.1843 44.1236 32.8604 44.1236ZM33.3803 42.8707C33.6474 42.8707 33.8832 42.8182 34.0877 42.7131C34.2923 42.6051 34.4528 42.4602 34.5692 42.2784C34.6857 42.0966 34.744 41.8906 34.744 41.6605V40.9659C34.6871 41.0028 34.609 41.0369 34.5096 41.0682C34.413 41.0966 34.3036 41.1236 34.1815 41.1491C34.0593 41.1719 33.9371 41.1932 33.815 41.2131C33.6928 41.2301 33.582 41.2457 33.4826 41.2599C33.2695 41.2912 33.0835 41.3409 32.9244 41.4091C32.7653 41.4773 32.6417 41.5696 32.5536 41.6861C32.4656 41.7997 32.4215 41.9418 32.4215 42.1122C32.4215 42.3594 32.511 42.5483 32.69 42.679C32.8718 42.8068 33.1019 42.8707 33.3803 42.8707ZM40.3038 46.5909C39.7157 46.5909 39.2114 46.5099 38.791 46.348C38.3734 46.1889 38.041 45.9716 37.7938 45.696C37.5467 45.4205 37.3862 45.1108 37.3123 44.767L38.9913 44.5412C39.0424 44.6719 39.1234 44.794 39.2342 44.9077C39.345 45.0213 39.4913 45.1122 39.6731 45.1804C39.8577 45.2514 40.0822 45.2869 40.3464 45.2869C40.7413 45.2869 41.0666 45.1903 41.3222 44.9972C41.5808 44.8068 41.71 44.4872 41.71 44.0384V42.8409H41.6333C41.5538 43.0227 41.4344 43.1946 41.2754 43.3565C41.1163 43.5185 40.9117 43.6506 40.6617 43.7528C40.4117 43.8551 40.1134 43.9062 39.7668 43.9062C39.2754 43.9062 38.8279 43.7926 38.4245 43.5653C38.0239 43.3352 37.7043 42.9844 37.4657 42.5128C37.2299 42.0384 37.112 41.4389 37.112 40.7145C37.112 39.973 37.2327 39.3537 37.4742 38.8565C37.7157 38.3594 38.0367 37.9872 38.4373 37.7401C38.8407 37.4929 39.2825 37.3693 39.7626 37.3693C40.129 37.3693 40.4359 37.4318 40.683 37.5568C40.9302 37.679 41.1291 37.8324 41.2796 38.017C41.433 38.1989 41.5509 38.3778 41.6333 38.554H41.7015V37.4545H43.5041V44.0639C43.5041 44.6207 43.3677 45.0866 43.095 45.4616C42.8222 45.8366 42.4444 46.1179 41.9614 46.3054C41.4813 46.4957 40.9288 46.5909 40.3038 46.5909ZM40.3421 42.5426C40.6347 42.5426 40.8819 42.4702 41.0836 42.3253C41.2881 42.1776 41.4444 41.9673 41.5523 41.6946C41.6631 41.419 41.7185 41.0895 41.7185 40.706C41.7185 40.3224 41.6646 39.9901 41.5566 39.7088C41.4487 39.4247 41.2924 39.2045 41.0879 39.0483C40.8833 38.892 40.6347 38.8139 40.3421 38.8139C40.0438 38.8139 39.7924 38.8949 39.5879 39.0568C39.3833 39.2159 39.2285 39.4375 39.1234 39.7216C39.0183 40.0057 38.9657 40.3338 38.9657 40.706C38.9657 41.0838 39.0183 41.4105 39.1234 41.6861C39.2313 41.9588 39.3862 42.1705 39.5879 42.321C39.7924 42.4687 40.0438 42.5426 40.3421 42.5426ZM47.3316 44.1278C46.6583 44.1278 46.0788 43.9915 45.593 43.7188C45.11 43.4432 44.7379 43.054 44.4765 42.5511C44.2151 42.0455 44.0844 41.4474 44.0844 40.7571C44.0844 40.0838 44.2151 39.4929 44.4765 38.9844C44.7379 38.4759 45.1058 38.0795 45.5802 37.7955C46.0575 37.5114 46.6171 37.3693 47.2592 37.3693C47.691 37.3693 48.093 37.4389 48.4651 37.5781C48.8401 37.7145 49.1668 37.9205 49.4452 38.196C49.7265 38.4716 49.9452 38.8182 50.1015 39.2358C50.2577 39.6506 50.3359 40.1364 50.3359 40.6932V41.1918H44.8089V40.0668H48.6271C48.6271 39.8054 48.5702 39.5739 48.4566 39.3722C48.343 39.1705 48.1853 39.0128 47.9836 38.8991C47.7847 38.7827 47.5532 38.7244 47.289 38.7244C47.0134 38.7244 46.7691 38.7884 46.556 38.9162C46.3458 39.0412 46.181 39.2102 46.0617 39.4233C45.9424 39.6335 45.8813 39.8679 45.8785 40.1264V41.196C45.8785 41.5199 45.9381 41.7997 46.0575 42.0355C46.1796 42.2713 46.3515 42.4531 46.5731 42.581C46.7947 42.7088 47.0575 42.7727 47.3614 42.7727C47.5631 42.7727 47.7478 42.7443 47.9154 42.6875C48.083 42.6307 48.2265 42.5455 48.3458 42.4318C48.4651 42.3182 48.556 42.179 48.6185 42.0142L50.2975 42.125C50.2123 42.5284 50.0376 42.8807 49.7734 43.1818C49.512 43.4801 49.1739 43.7131 48.7592 43.8807C48.3472 44.0455 47.8714 44.1278 47.3316 44.1278Z" fill="#7A7A7A"/>
<path d="M41.3077 1.63154L39.6762 0L9 30.6762L10.6315 32.3077L12.9392 30H36.6923C37.3041 29.9991 37.8905 29.7557 38.3231 29.3231C38.7557 28.8905 38.9991 28.3041 39 27.6923V3.93923L41.3077 1.63154ZM36.6923 27.6923H15.2469L24.2388 18.7004L26.9838 21.4454C27.4166 21.878 28.0035 22.121 28.6154 22.121C29.2273 22.121 29.8142 21.878 30.2469 21.4454L32.0769 19.6154L36.6923 24.2273V27.6923ZM36.6923 20.9631L33.7085 17.9792C33.2757 17.5466 32.6888 17.3036 32.0769 17.3036C31.465 17.3036 30.8781 17.5466 30.4454 17.9792L28.6154 19.8092L25.8727 17.0665L36.6923 6.24692V20.9631ZM13.6154 23.0769V19.6154L19.3846 13.8496L20.9688 15.435L22.6027 13.8012L21.0162 12.2146C20.5834 11.782 19.9965 11.539 19.3846 11.539C18.7727 11.539 18.1858 11.782 17.7531 12.2146L13.6154 16.3523V4.61538H32.0769V2.30769H13.6154C13.0035 2.3083 12.4169 2.55163 11.9843 2.98427C11.5516 3.41692 11.3083 4.00353 11.3077 4.61538V23.0769H13.6154Z" fill="#7A7A7A"/>
</svg>
