<svg width="100%"  viewBox="0 0 1679 691" fill="none" xmlns="http://www.w3.org/2000/svg">
<path d="M96.3927 190.697C117.993 168.297 146.726 156.03 158.393 152.697C214.393 135.697 282.068 122.703 352.393 169.697C431 222.226 467.393 412.697 400.393 501.697C333.393 590.697 248.393 598.697 158.393 582.697C68.3927 566.697 1.39267 448.697 13.3927 359.697C25.3927 270.697 69.3927 218.697 96.3927 190.697Z" stroke="#777699" stroke-width="10"/>
<path d="M171.396 364.911C180.996 320.111 202.729 309.578 212.396 309.911L212.396 309.911C235.001 309.911 282.395 309.911 278.396 364.911C275.196 408.911 242.396 422.578 226.396 423.911C204.063 422.911 161.796 409.711 171.396 364.911Z" stroke="#777699" stroke-width="10"/>
<path d="M941.319 368.693C953.57 326.689 969.07 291.932 994.319 267.693C1050.57 213.689 1174.07 212.189 1218.32 234.693C1260.89 256.343 1311.32 341.693 1263.32 450.693C1224.92 537.893 1118.65 543.693 1070.32 535.693C1070.32 535.693 1064.57 562.189 1051.32 589.693C1029.9 634.138 1013.78 654.997 994.319 663.693C973.07 673.189 914.319 680.693 911.319 584.693C908.319 488.693 927.14 417.303 941.319 368.693Z" stroke="#777699" stroke-width="10"/>
<path d="M1546.96 139.235C1618.96 150.435 1654.29 209.235 1662.96 237.235C1671.96 282.235 1651 305.234 1617.96 305.234C1587.6 305.234 1527.96 275.234 1500.96 254.234C1558 336.44 1529 295.44 1577.96 364.234C1640.53 452.142 1614.96 515.234 1582.96 550.234C1550.96 585.234 1478.96 606.234 1402.96 572.234C1326.96 538.234 1295.96 463.234 1319.96 433.234C1343.96 403.234 1397 411.47 1402.96 412.234C1434.16 416.234 1471.96 437.901 1486.96 448.234C1467.63 431.234 1427 387.44 1413 364.234C1395.63 335.44 1376.66 305.234 1369.96 287.234C1352.4 240.058 1380 192.44 1402.96 170.235C1425.29 148.639 1456.96 125.235 1546.96 139.235Z" stroke="#D3D3D3" stroke-width="10"/>
<path d="M487.747 241.54C502.147 111.94 577.747 56.2069 613.747 44.5402C664.747 21.5402 765.746 15.5402 816.746 38.5402C867.746 61.5402 940.746 151.54 898.746 289.54C856.746 427.54 774.747 466.54 684.747 469.54C594.747 472.54 469.747 403.54 487.747 241.54Z" stroke="#9183E2" stroke-width="10"/>
<path d="M644.285 243.625C649.885 215.625 664.061 204.585 669.539 200.085C694.539 179.545 755.285 188.626 754.285 243.625C753.285 298.625 720.956 306.218 695.285 307.626C659.539 309.585 637.285 278.626 644.285 243.625Z" stroke="#9183E2" stroke-width="10"/>
<path d="M1068.22 375.587C1076.22 343.587 1101.55 332.92 1113.22 331.587C1127.55 328.92 1156.42 333.987 1157.22 375.587C1158.02 417.187 1128.22 428.253 1113.22 428.587C1093.47 429.025 1060.22 407.587 1068.22 375.587Z" stroke="#777699" stroke-width="10"/>
</svg>
