<svg width="64" height="83" viewBox="0 0 64 83" fill="none" xmlns="http://www.w3.org/2000/svg">
<g filter="url(#filter0_d_289_716)">
<path d="M55 31.5427C55 47.3064 29 74 29 74C29 74 3 47.3064 3 31.5427C3 15.779 14.6406 3 29 3C43.3594 3 55 15.779 55 31.5427Z" fill="#777699"/>
</g>
<circle cx="29.5" cy="28.5" r="17.5" fill="white"/>
<path d="M29.9261 37.2386C28.6136 37.2386 27.446 37.0256 26.4233 36.5994C25.4063 36.1676 24.608 35.5795 24.0284 34.8352C23.4489 34.0909 23.1591 33.2472 23.1591 32.304C23.1591 31.5767 23.3239 30.9091 23.6534 30.3011C23.9886 29.6875 24.4432 29.179 25.017 28.7756C25.5909 28.3665 26.233 28.1051 26.9432 27.9915V27.8722C26.0114 27.6847 25.2557 27.233 24.6761 26.517C24.0966 25.7955 23.8068 24.9574 23.8068 24.0028C23.8068 23.0994 24.071 22.2955 24.5994 21.5909C25.1278 20.8807 25.8523 20.3239 26.7727 19.9205C27.6989 19.5114 28.75 19.3068 29.9261 19.3068C31.1023 19.3068 32.1506 19.5114 33.071 19.9205C33.9972 20.3295 34.7244 20.8892 35.2528 21.5994C35.7813 22.304 36.0483 23.1051 36.054 24.0028C36.0483 24.9631 35.7528 25.8011 35.1676 26.517C34.5824 27.233 33.8324 27.6847 32.9176 27.8722V27.9915C33.6165 28.1051 34.25 28.3665 34.8182 28.7756C35.392 29.179 35.8466 29.6875 36.1818 30.3011C36.5227 30.9091 36.696 31.5767 36.7017 32.304C36.696 33.2472 36.4034 34.0909 35.8239 34.8352C35.2443 35.5795 34.4432 36.1676 33.4205 36.5994C32.4034 37.0256 31.2386 37.2386 29.9261 37.2386ZM29.9261 34.5284C30.5114 34.5284 31.0227 34.4233 31.4602 34.2131C31.8977 33.9972 32.2386 33.7017 32.483 33.3267C32.733 32.946 32.858 32.5085 32.858 32.0142C32.858 31.5085 32.7301 31.0625 32.4744 30.6761C32.2188 30.2841 31.8722 29.9773 31.4347 29.7557C30.9972 29.5284 30.4943 29.4148 29.9261 29.4148C29.3636 29.4148 28.8608 29.5284 28.4176 29.7557C27.9744 29.9773 27.625 30.2841 27.3693 30.6761C27.1193 31.0625 26.9943 31.5085 26.9943 32.0142C26.9943 32.5085 27.1165 32.946 27.3608 33.3267C27.6051 33.7017 27.9489 33.9972 28.392 34.2131C28.8352 34.4233 29.3466 34.5284 29.9261 34.5284ZM29.9261 26.7301C30.4148 26.7301 30.8494 26.6307 31.2301 26.4318C31.6108 26.233 31.9091 25.9574 32.125 25.6051C32.3409 25.2528 32.4489 24.8466 32.4489 24.3864C32.4489 23.9318 32.3409 23.5341 32.125 23.1932C31.9091 22.8466 31.6136 22.5767 31.2386 22.3835C30.8636 22.1847 30.4261 22.0852 29.9261 22.0852C29.4318 22.0852 28.9943 22.1847 28.6136 22.3835C28.233 22.5767 27.9347 22.8466 27.7188 23.1932C27.5085 23.5341 27.4034 23.9318 27.4034 24.3864C27.4034 24.8466 27.5114 25.2528 27.7273 25.6051C27.9432 25.9574 28.2415 26.233 28.6222 26.4318C29.0028 26.6307 29.4375 26.7301 29.9261 26.7301Z" fill="#777699"/>
<defs>
<filter id="filter0_d_289_716" x="0" y="0" width="64" height="83" filterUnits="userSpaceOnUse" color-interpolation-filters="sRGB">
<feFlood flood-opacity="0" result="BackgroundImageFix"/>
<feColorMatrix in="SourceAlpha" type="matrix" values="0 0 0 0 0 0 0 0 0 0 0 0 0 0 0 0 0 0 127 0" result="hardAlpha"/>
<feOffset dx="3" dy="3"/>
<feGaussianBlur stdDeviation="3"/>
<feComposite in2="hardAlpha" operator="out"/>
<feColorMatrix type="matrix" values="0 0 0 0 0 0 0 0 0 0 0 0 0 0 0 0 0 0 0.25 0"/>
<feBlend mode="normal" in2="BackgroundImageFix" result="effect1_dropShadow_289_716"/>
<feBlend mode="normal" in="SourceGraphic" in2="effect1_dropShadow_289_716" result="shape"/>
</filter>
</defs>
</svg>
