<svg width="64" height="83" viewBox="0 0 64 83" fill="none" xmlns="http://www.w3.org/2000/svg">
<g filter="url(#filter0_d_289_716)">
<path d="M55 31.5427C55 47.3064 29 74 29 74C29 74 3 47.3064 3 31.5427C3 15.779 14.6406 3 29 3C43.3594 3 55 15.779 55 31.5427Z" fill="#777699"/>
</g>
<circle cx="29.5" cy="28.5" r="17.5" fill="white"/>
<path d="M30.1331 37.3736C28.8604 37.3736 27.7268 37.1549 26.7325 36.7174C25.7439 36.2742 24.9626 35.6663 24.3888 34.8935C23.8206 34.1151 23.528 33.2174 23.5109 32.2004H27.2268C27.2496 32.6265 27.3888 33.0015 27.6444 33.3254C27.9058 33.6435 28.2524 33.8907 28.6842 34.0668C29.116 34.243 29.6018 34.331 30.1416 34.331C30.7041 34.331 31.2013 34.2316 31.6331 34.0327C32.0649 33.8339 32.403 33.5583 32.6473 33.206C32.8916 32.8538 33.0138 32.4475 33.0138 31.9873C33.0138 31.5214 32.8831 31.1094 32.6217 30.7515C32.366 30.3879 31.9967 30.1038 31.5138 29.8992C31.0365 29.6947 30.4683 29.5924 29.8092 29.5924H28.1814V26.8822H29.8092C30.366 26.8822 30.8575 26.7856 31.2836 26.5924C31.7155 26.3992 32.0507 26.1322 32.2893 25.7913C32.528 25.4447 32.6473 25.0413 32.6473 24.581C32.6473 24.1435 32.5422 23.76 32.3319 23.4305C32.1274 23.0952 31.8376 22.8339 31.4626 22.6464C31.0933 22.4589 30.6615 22.3651 30.1672 22.3651C29.6672 22.3651 29.2098 22.456 28.795 22.6379C28.3802 22.814 28.0479 23.0668 27.7979 23.3964C27.5479 23.7259 27.4143 24.1123 27.3973 24.5555H23.8604C23.8774 23.5498 24.1643 22.6634 24.7211 21.8964C25.278 21.1293 26.028 20.5299 26.9711 20.0981C27.92 19.6606 28.991 19.4418 30.1842 19.4418C31.3888 19.4418 32.4427 19.6606 33.3461 20.0981C34.2496 20.5356 34.9513 21.1265 35.4513 21.8708C35.9569 22.6094 36.2069 23.439 36.2013 24.3594C36.2069 25.3367 35.903 26.1521 35.2893 26.8055C34.6814 27.4589 33.8888 27.8736 32.9115 28.0498V28.1861C34.1956 28.3509 35.1729 28.7969 35.8433 29.5242C36.5194 30.2458 36.8547 31.1492 36.849 32.2344C36.8547 33.2288 36.5677 34.1123 35.9882 34.885C35.4143 35.6577 34.6217 36.2657 33.6104 36.7089C32.599 37.1521 31.4399 37.3736 30.1331 37.3736Z" fill="#777699"/>
<defs>
<filter id="filter0_d_289_716" x="0" y="0" width="64" height="83" filterUnits="userSpaceOnUse" color-interpolation-filters="sRGB">
<feFlood flood-opacity="0" result="BackgroundImageFix"/>
<feColorMatrix in="SourceAlpha" type="matrix" values="0 0 0 0 0 0 0 0 0 0 0 0 0 0 0 0 0 0 127 0" result="hardAlpha"/>
<feOffset dx="3" dy="3"/>
<feGaussianBlur stdDeviation="3"/>
<feComposite in2="hardAlpha" operator="out"/>
<feColorMatrix type="matrix" values="0 0 0 0 0 0 0 0 0 0 0 0 0 0 0 0 0 0 0.25 0"/>
<feBlend mode="normal" in2="BackgroundImageFix" result="effect1_dropShadow_289_716"/>
<feBlend mode="normal" in="SourceGraphic" in2="effect1_dropShadow_289_716" result="shape"/>
</filter>
</defs>
</svg>
