<svg width="44" height="44" viewBox="0 0 44 44" fill="none" xmlns="http://www.w3.org/2000/svg">
<g clip-path="url(#clip0_293_717)">
<path opacity="0.23" d="M22 44C34.1503 44 44 34.1503 44 22C44 9.84974 34.1503 0 22 0C9.84974 0 0 9.84974 0 22C0 34.1503 9.84974 44 22 44Z" fill="#777699"/>
<g filter="url(#filter0_d_293_717)">
<path d="M22.3171 30.6341C26.9105 30.6341 30.6341 26.9105 30.6341 22.3171C30.6341 17.7237 26.9105 14 22.3171 14C17.7237 14 14 17.7237 14 22.3171C14 26.9105 17.7237 30.6341 22.3171 30.6341Z" fill="#777699"/>
<path d="M22.3171 29.6341C26.3582 29.6341 29.6341 26.3582 29.6341 22.3171C29.6341 18.276 26.3582 15 22.3171 15C18.276 15 15 18.276 15 22.3171C15 26.3582 18.276 29.6341 22.3171 29.6341Z" stroke="white" stroke-width="2"/>
</g>
</g>
<defs>
<filter id="filter0_d_293_717" x="10" y="14" width="24.6343" height="24.634" filterUnits="userSpaceOnUse" color-interpolation-filters="sRGB">
<feFlood flood-opacity="0" result="BackgroundImageFix"/>
<feColorMatrix in="SourceAlpha" type="matrix" values="0 0 0 0 0 0 0 0 0 0 0 0 0 0 0 0 0 0 127 0" result="hardAlpha"/>
<feOffset dy="4"/>
<feGaussianBlur stdDeviation="2"/>
<feComposite in2="hardAlpha" operator="out"/>
<feColorMatrix type="matrix" values="0 0 0 0 0 0 0 0 0 0 0 0 0 0 0 0 0 0 0.25 0"/>
<feBlend mode="normal" in2="BackgroundImageFix" result="effect1_dropShadow_293_717"/>
<feBlend mode="normal" in="SourceGraphic" in2="effect1_dropShadow_293_717" result="shape"/>
</filter>
<clipPath id="clip0_293_717">
<rect width="44" height="44" fill="white"/>
</clipPath>
</defs>
</svg>
