<svg width="64" height="83" viewBox="0 0 64 83" fill="none" xmlns="http://www.w3.org/2000/svg">
<g filter="url(#filter0_d_289_716)">
<path d="M55 31.5427C55 47.3064 29 74 29 74C29 74 3 47.3064 3 31.5427C3 15.779 14.6406 3 29 3C43.3594 3 55 15.779 55 31.5427Z" fill="#777699"/>
</g>
<circle cx="29.5" cy="28.5" r="17.5" fill="white"/>
<path d="M28.7898 37.2386C27.5852 37.2386 26.5114 37.017 25.5682 36.5739C24.6307 36.1307 23.8864 35.5199 23.3352 34.7415C22.7841 33.9631 22.4972 33.071 22.4744 32.0653H26.054C26.0938 32.7415 26.3778 33.2898 26.9062 33.7102C27.4347 34.1307 28.0625 34.3409 28.7898 34.3409C29.3693 34.3409 29.8807 34.2131 30.3239 33.9574C30.7727 33.696 31.1222 33.3352 31.3722 32.875C31.6278 32.4091 31.7557 31.875 31.7557 31.2727C31.7557 30.6591 31.625 30.1193 31.3636 29.6534C31.108 29.1875 30.7528 28.8239 30.2983 28.5625C29.8438 28.3011 29.3239 28.1676 28.7386 28.1619C28.2273 28.1619 27.7301 28.267 27.2472 28.4773C26.7699 28.6875 26.3977 28.9744 26.1307 29.3381L22.8494 28.75L23.6761 19.5455H34.3466V22.5625H26.7188L26.267 26.9347H26.3693C26.6761 26.5028 27.1392 26.1449 27.7585 25.8608C28.3778 25.5767 29.071 25.4347 29.8381 25.4347C30.8892 25.4347 31.8267 25.6818 32.6506 26.1761C33.4744 26.6705 34.125 27.3494 34.6023 28.2131C35.0795 29.071 35.3153 30.0597 35.3097 31.179C35.3153 32.3551 35.0426 33.4006 34.4915 34.3153C33.946 35.2244 33.1818 35.9403 32.1989 36.4631C31.2216 36.9801 30.0852 37.2386 28.7898 37.2386Z" fill="#777699"/>
<defs>
<filter id="filter0_d_289_716" x="0" y="0" width="64" height="83" filterUnits="userSpaceOnUse" color-interpolation-filters="sRGB">
<feFlood flood-opacity="0" result="BackgroundImageFix"/>
<feColorMatrix in="SourceAlpha" type="matrix" values="0 0 0 0 0 0 0 0 0 0 0 0 0 0 0 0 0 0 127 0" result="hardAlpha"/>
<feOffset dx="3" dy="3"/>
<feGaussianBlur stdDeviation="3"/>
<feComposite in2="hardAlpha" operator="out"/>
<feColorMatrix type="matrix" values="0 0 0 0 0 0 0 0 0 0 0 0 0 0 0 0 0 0 0.25 0"/>
<feBlend mode="normal" in2="BackgroundImageFix" result="effect1_dropShadow_289_716"/>
<feBlend mode="normal" in="SourceGraphic" in2="effect1_dropShadow_289_716" result="shape"/>
</filter>
</defs>
</svg>
