<svg width="64" height="83" viewBox="0 0 64 83" fill="none" xmlns="http://www.w3.org/2000/svg">
<g filter="url(#filter0_d_289_716)">
<path d="M55 31.5427C55 47.3064 29 74 29 74C29 74 3 47.3064 3 31.5427C3 15.779 14.6406 3 29 3C43.3594 3 55 15.779 55 31.5427Z" fill="#777699"/>
</g>
<circle cx="29.5" cy="28.5" r="17.5" fill="white"/>
<path d="M25.0085 19.5455V37H21.3182V23.0483H21.2159L17.2188 25.554V22.2812L21.5398 19.5455H25.0085ZM35.6087 37.2386C34.3359 37.2386 33.2024 37.0199 32.2081 36.5824C31.2195 36.1392 30.4382 35.5312 29.8643 34.7585C29.2962 33.9801 29.0036 33.0824 28.9865 32.0653H32.7024C32.7251 32.4915 32.8643 32.8665 33.12 33.1903C33.3814 33.5085 33.728 33.7557 34.1598 33.9318C34.5916 34.108 35.0774 34.196 35.6172 34.196C36.1797 34.196 36.6768 34.0966 37.1087 33.8977C37.5405 33.6989 37.8786 33.4233 38.1229 33.071C38.3672 32.7187 38.4893 32.3125 38.4893 31.8523C38.4893 31.3864 38.3587 30.9744 38.0973 30.6165C37.8416 30.2528 37.4723 29.9687 36.9893 29.7642C36.5121 29.5597 35.9439 29.4574 35.2848 29.4574H33.657V26.7472H35.2848C35.8416 26.7472 36.3331 26.6506 36.7592 26.4574C37.1911 26.2642 37.5263 25.9972 37.7649 25.6562C38.0036 25.3097 38.1229 24.9062 38.1229 24.446C38.1229 24.0085 38.0178 23.625 37.8075 23.2955C37.603 22.9602 37.3132 22.6989 36.9382 22.5114C36.5689 22.3239 36.1371 22.2301 35.6428 22.2301C35.1428 22.2301 34.6854 22.321 34.2706 22.5028C33.8558 22.679 33.5234 22.9318 33.2734 23.2614C33.0234 23.5909 32.8899 23.9773 32.8729 24.4205H29.3359C29.353 23.4148 29.6399 22.5284 30.1967 21.7614C30.7536 20.9943 31.5036 20.3949 32.4467 19.9631C33.3956 19.5256 34.4666 19.3068 35.6598 19.3068C36.8643 19.3068 37.9183 19.5256 38.8217 19.9631C39.7251 20.4006 40.4268 20.9915 40.9268 21.7358C41.4325 22.4744 41.6825 23.304 41.6768 24.2244C41.6825 25.2017 41.3786 26.017 40.7649 26.6705C40.157 27.3239 39.3643 27.7386 38.3871 27.9148V28.0511C39.6712 28.2159 40.6484 28.6619 41.3189 29.3892C41.995 30.1108 42.3303 31.0142 42.3246 32.0994C42.3303 33.0938 42.0433 33.9773 41.4638 34.75C40.8899 35.5227 40.0973 36.1307 39.0859 36.5739C38.0746 37.017 36.9155 37.2386 35.6087 37.2386Z" fill="#777699"/>
<defs>
<filter id="filter0_d_289_716" x="0" y="0" width="64" height="83" filterUnits="userSpaceOnUse" color-interpolation-filters="sRGB">
<feFlood flood-opacity="0" result="BackgroundImageFix"/>
<feColorMatrix in="SourceAlpha" type="matrix" values="0 0 0 0 0 0 0 0 0 0 0 0 0 0 0 0 0 0 127 0" result="hardAlpha"/>
<feOffset dx="3" dy="3"/>
<feGaussianBlur stdDeviation="3"/>
<feComposite in2="hardAlpha" operator="out"/>
<feColorMatrix type="matrix" values="0 0 0 0 0 0 0 0 0 0 0 0 0 0 0 0 0 0 0.25 0"/>
<feBlend mode="normal" in2="BackgroundImageFix" result="effect1_dropShadow_289_716"/>
<feBlend mode="normal" in="SourceGraphic" in2="effect1_dropShadow_289_716" result="shape"/>
</filter>
</defs>
</svg>
