<svg width="64" height="83" viewBox="0 0 64 83" fill="none" xmlns="http://www.w3.org/2000/svg">
<g filter="url(#filter0_d_289_716)">
<path d="M55 31.5427C55 47.3064 29 74 29 74C29 74 3 47.3064 3 31.5427C3 15.779 14.6406 3 29 3C43.3594 3 55 15.779 55 31.5427Z" fill="#777699"/>
</g>
<circle cx="29.5" cy="28.5" r="17.5" fill="white"/>
<path d="M23.6814 37.135V34.4759L29.8944 28.7231C30.4229 28.2117 30.866 27.7515 31.224 27.3424C31.5876 26.9333 31.8632 26.5327 32.0507 26.1407C32.2382 25.743 32.3319 25.314 32.3319 24.8538C32.3319 24.3424 32.2155 23.9021 31.9825 23.5327C31.7496 23.1577 31.4314 22.8708 31.028 22.6719C30.6246 22.4674 30.1672 22.3651 29.6558 22.3651C29.1217 22.3651 28.6558 22.4731 28.2581 22.689C27.8604 22.9049 27.5535 23.2146 27.3376 23.618C27.1217 24.0214 27.0138 24.5015 27.0138 25.0583H23.5109C23.5109 23.9163 23.7694 22.9248 24.2865 22.0839C24.8035 21.243 25.528 20.5924 26.4598 20.1322C27.3916 19.6719 28.4655 19.4418 29.6814 19.4418C30.9314 19.4418 32.0194 19.6634 32.9456 20.1066C33.8774 20.5441 34.6018 21.1521 35.1189 21.9305C35.6359 22.7089 35.8944 23.6009 35.8944 24.6066C35.8944 25.2657 35.7638 25.9163 35.5024 26.5583C35.2467 27.2004 34.7893 27.9134 34.1302 28.6975C33.4711 29.4759 32.5422 30.4106 31.3433 31.5015L28.795 33.9986V34.118H36.1246V37.135H23.6814Z" fill="#777699"/>
<defs>
<filter id="filter0_d_289_716" x="0" y="0" width="64" height="83" filterUnits="userSpaceOnUse" color-interpolation-filters="sRGB">
<feFlood flood-opacity="0" result="BackgroundImageFix"/>
<feColorMatrix in="SourceAlpha" type="matrix" values="0 0 0 0 0 0 0 0 0 0 0 0 0 0 0 0 0 0 127 0" result="hardAlpha"/>
<feOffset dx="3" dy="3"/>
<feGaussianBlur stdDeviation="3"/>
<feComposite in2="hardAlpha" operator="out"/>
<feColorMatrix type="matrix" values="0 0 0 0 0 0 0 0 0 0 0 0 0 0 0 0 0 0 0.25 0"/>
<feBlend mode="normal" in2="BackgroundImageFix" result="effect1_dropShadow_289_716"/>
<feBlend mode="normal" in="SourceGraphic" in2="effect1_dropShadow_289_716" result="shape"/>
</filter>
</defs>
</svg>
