<svg width="64" height="83" viewBox="0 0 64 83" fill="none" xmlns="http://www.w3.org/2000/svg">
<g filter="url(#filter0_d_289_716)">
<path d="M55 31.5427C55 47.3064 29 74 29 74C29 74 3 47.3064 3 31.5427C3 15.779 14.6406 3 29 3C43.3594 3 55 15.779 55 31.5427Z" fill="#777699"/>
</g>
<circle cx="29.5" cy="28.5" r="17.5" fill="white"/>
<path d="M24.0085 19.5455V37H20.3182V23.0483H20.2159L16.2188 25.554V22.2812L20.5398 19.5455H24.0085ZM35.0007 37.3835C33.5348 37.3778 32.2734 37.017 31.2166 36.3011C30.1655 35.5852 29.3558 34.5483 28.7876 33.1903C28.2251 31.8324 27.9467 30.1989 27.9524 28.2898C27.9524 26.3864 28.2337 24.7642 28.7962 23.4233C29.3643 22.0824 30.174 21.0625 31.2251 20.3636C32.282 19.6591 33.5405 19.3068 35.0007 19.3068C36.4609 19.3068 37.7166 19.6591 38.7678 20.3636C39.8246 21.0682 40.6371 22.0909 41.2053 23.4318C41.7734 24.767 42.0547 26.3864 42.049 28.2898C42.049 30.2045 41.7649 31.8409 41.1967 33.1989C40.6342 34.5568 39.8274 35.5937 38.7763 36.3097C37.7251 37.0256 36.4666 37.3835 35.0007 37.3835ZM35.0007 34.3239C36.0007 34.3239 36.799 33.821 37.3956 32.8153C37.9922 31.8097 38.2876 30.3011 38.282 28.2898C38.282 26.9659 38.1456 25.8636 37.8729 24.983C37.6058 24.1023 37.2251 23.4403 36.7308 22.9972C36.2422 22.554 35.6655 22.3324 35.0007 22.3324C34.0064 22.3324 33.2109 22.8295 32.6143 23.8239C32.0178 24.8182 31.7166 26.3068 31.7109 28.2898C31.7109 29.6307 31.8445 30.75 32.1115 31.6477C32.3842 32.5398 32.7678 33.2102 33.2621 33.6591C33.7564 34.1023 34.3359 34.3239 35.0007 34.3239Z" fill="#777699"/>
<defs>
<filter id="filter0_d_289_716" x="0" y="0" width="64" height="83" filterUnits="userSpaceOnUse" color-interpolation-filters="sRGB">
<feFlood flood-opacity="0" result="BackgroundImageFix"/>
<feColorMatrix in="SourceAlpha" type="matrix" values="0 0 0 0 0 0 0 0 0 0 0 0 0 0 0 0 0 0 127 0" result="hardAlpha"/>
<feOffset dx="3" dy="3"/>
<feGaussianBlur stdDeviation="3"/>
<feComposite in2="hardAlpha" operator="out"/>
<feColorMatrix type="matrix" values="0 0 0 0 0 0 0 0 0 0 0 0 0 0 0 0 0 0 0.25 0"/>
<feBlend mode="normal" in2="BackgroundImageFix" result="effect1_dropShadow_289_716"/>
<feBlend mode="normal" in="SourceGraphic" in2="effect1_dropShadow_289_716" result="shape"/>
</filter>
</defs>
</svg>
