<svg width="64" height="83" viewBox="0 0 64 83" fill="none" xmlns="http://www.w3.org/2000/svg">
<g filter="url(#filter0_d_289_716)">
<path d="M55 31.5427C55 47.3064 29 74 29 74C29 74 3 47.3064 3 31.5427C3 15.779 14.6406 3 29 3C43.3594 3 55 15.779 55 31.5427Z" fill="#777699"/>
</g>
<circle cx="29.5" cy="28.5" r="17.5" fill="white"/>
<path d="M29.7301 19.3068C30.6278 19.3068 31.4915 19.4574 32.321 19.7585C33.1563 20.0597 33.9006 20.5398 34.554 21.1989C35.2131 21.858 35.733 22.733 36.1136 23.8239C36.5 24.9091 36.696 26.2415 36.7017 27.821C36.7017 29.304 36.5341 30.6278 36.1989 31.7926C35.8693 32.9517 35.3949 33.9375 34.7756 34.75C34.1563 35.5625 33.4091 36.1818 32.5341 36.608C31.6591 37.0284 30.6818 37.2386 29.6023 37.2386C28.4375 37.2386 27.4091 37.0142 26.517 36.5653C25.625 36.1108 24.9063 35.4943 24.3608 34.7159C23.821 33.9318 23.4943 33.0511 23.3807 32.0739H27.0199C27.1619 32.7102 27.4602 33.2045 27.9148 33.5568C28.3693 33.9034 28.9318 34.0767 29.6023 34.0767C30.7386 34.0767 31.6023 33.5824 32.1932 32.5938C32.7841 31.5994 33.0824 30.2386 33.0881 28.5114H32.9688C32.7074 29.0227 32.3551 29.4631 31.9119 29.8324C31.4688 30.196 30.9602 30.4773 30.3864 30.6761C29.8182 30.875 29.2131 30.9744 28.571 30.9744C27.5426 30.9744 26.625 30.733 25.8182 30.25C25.0114 29.767 24.375 29.1023 23.9091 28.2557C23.4432 27.4091 23.2102 26.4432 23.2102 25.358C23.2045 24.1875 23.4744 23.1449 24.0199 22.2301C24.5653 21.3153 25.3267 20.5994 26.304 20.0824C27.2869 19.5597 28.429 19.3011 29.7301 19.3068ZM29.7557 22.2045C29.1818 22.2045 28.6705 22.3409 28.2216 22.6136C27.7784 22.8864 27.4261 23.2528 27.1648 23.7131C26.9091 24.1733 26.7841 24.6875 26.7898 25.2557C26.7898 25.8295 26.9148 26.3466 27.1648 26.8068C27.4205 27.2614 27.767 27.625 28.2045 27.8977C28.6477 28.1648 29.1534 28.2983 29.7216 28.2983C30.1477 28.2983 30.5426 28.2187 30.9062 28.0597C31.2699 27.9006 31.5852 27.6818 31.8523 27.4034C32.125 27.1193 32.3381 26.7926 32.4915 26.4233C32.6449 26.054 32.7216 25.6619 32.7216 25.2472C32.7159 24.696 32.5852 24.1903 32.3295 23.7301C32.0739 23.2699 31.7216 22.9006 31.2727 22.6222C30.8239 22.3437 30.3182 22.2045 29.7557 22.2045Z" fill="#777699"/>
<defs>
<filter id="filter0_d_289_716" x="0" y="0" width="64" height="83" filterUnits="userSpaceOnUse" color-interpolation-filters="sRGB">
<feFlood flood-opacity="0" result="BackgroundImageFix"/>
<feColorMatrix in="SourceAlpha" type="matrix" values="0 0 0 0 0 0 0 0 0 0 0 0 0 0 0 0 0 0 127 0" result="hardAlpha"/>
<feOffset dx="3" dy="3"/>
<feGaussianBlur stdDeviation="3"/>
<feComposite in2="hardAlpha" operator="out"/>
<feColorMatrix type="matrix" values="0 0 0 0 0 0 0 0 0 0 0 0 0 0 0 0 0 0 0.25 0"/>
<feBlend mode="normal" in2="BackgroundImageFix" result="effect1_dropShadow_289_716"/>
<feBlend mode="normal" in="SourceGraphic" in2="effect1_dropShadow_289_716" result="shape"/>
</filter>
</defs>
</svg>
