<svg width="64" height="83" viewBox="0 0 64 83" fill="none" xmlns="http://www.w3.org/2000/svg">
<g filter="url(#filter0_d_289_716)">
<path d="M55 31.5427C55 47.3064 29 74 29 74C29 74 3 47.3064 3 31.5427C3 15.779 14.6406 3 29 3C43.3594 3 55 15.779 55 31.5427Z" fill="#777699"/>
</g>
<circle cx="29.5" cy="28.5" r="17.5" fill="white"/>
<path d="M25.0085 19.5455V37H21.3182V23.0483H21.2159L17.2188 25.554V22.2812L21.5398 19.5455H25.0085ZM28.8928 33.9318V31.0256L36.1797 19.5455H38.6854V23.5682H37.2024L32.6087 30.8381V30.9744H42.9638V33.9318H28.8928ZM37.2706 37V33.0455L37.3388 31.7585V19.5455H40.799V37H37.2706Z" fill="#777699"/>
<defs>
<filter id="filter0_d_289_716" x="0" y="0" width="64" height="83" filterUnits="userSpaceOnUse" color-interpolation-filters="sRGB">
<feFlood flood-opacity="0" result="BackgroundImageFix"/>
<feColorMatrix in="SourceAlpha" type="matrix" values="0 0 0 0 0 0 0 0 0 0 0 0 0 0 0 0 0 0 127 0" result="hardAlpha"/>
<feOffset dx="3" dy="3"/>
<feGaussianBlur stdDeviation="3"/>
<feComposite in2="hardAlpha" operator="out"/>
<feColorMatrix type="matrix" values="0 0 0 0 0 0 0 0 0 0 0 0 0 0 0 0 0 0 0.25 0"/>
<feBlend mode="normal" in2="BackgroundImageFix" result="effect1_dropShadow_289_716"/>
<feBlend mode="normal" in="SourceGraphic" in2="effect1_dropShadow_289_716" result="shape"/>
</filter>
</defs>
</svg>
