<svg width="64" height="83" viewBox="0 0 64 83" fill="none" xmlns="http://www.w3.org/2000/svg">
<g filter="url(#filter0_d_289_716)">
<path d="M55 31.5427C55 47.3064 29 74 29 74C29 74 3 47.3064 3 31.5427C3 15.779 14.6406 3 29 3C43.3594 3 55 15.779 55 31.5427Z" fill="#777699"/>
</g>
<circle cx="29.5" cy="28.5" r="17.5" fill="white"/>
<path d="M25.0085 19.5455V37H21.3182V23.0483H21.2159L17.2188 25.554V22.2812L21.5398 19.5455H25.0085ZM29.157 37V34.3409L35.37 28.5881C35.8984 28.0767 36.3416 27.6165 36.6996 27.2074C37.0632 26.7983 37.3388 26.3977 37.5263 26.0057C37.7138 25.608 37.8075 25.179 37.8075 24.7188C37.8075 24.2074 37.6911 23.767 37.4581 23.3977C37.2251 23.0227 36.907 22.7358 36.5036 22.5369C36.1001 22.3324 35.6428 22.2301 35.1314 22.2301C34.5973 22.2301 34.1314 22.3381 33.7337 22.554C33.3359 22.7699 33.0291 23.0795 32.8132 23.483C32.5973 23.8864 32.4893 24.3665 32.4893 24.9233H28.9865C28.9865 23.7812 29.245 22.7898 29.7621 21.9489C30.2791 21.108 31.0036 20.4574 31.9354 19.9972C32.8672 19.5369 33.9411 19.3068 35.157 19.3068C36.407 19.3068 37.495 19.5284 38.4212 19.9716C39.353 20.4091 40.0774 21.017 40.5945 21.7955C41.1115 22.5739 41.37 23.4659 41.37 24.4716C41.37 25.1307 41.2393 25.7812 40.978 26.4233C40.7223 27.0653 40.2649 27.7784 39.6058 28.5625C38.9467 29.3409 38.0178 30.2756 36.8189 31.3665L34.2706 33.8636V33.983H41.6001V37H29.157Z" fill="#777699"/>
<defs>
<filter id="filter0_d_289_716" x="0" y="0" width="64" height="83" filterUnits="userSpaceOnUse" color-interpolation-filters="sRGB">
<feFlood flood-opacity="0" result="BackgroundImageFix"/>
<feColorMatrix in="SourceAlpha" type="matrix" values="0 0 0 0 0 0 0 0 0 0 0 0 0 0 0 0 0 0 127 0" result="hardAlpha"/>
<feOffset dx="3" dy="3"/>
<feGaussianBlur stdDeviation="3"/>
<feComposite in2="hardAlpha" operator="out"/>
<feColorMatrix type="matrix" values="0 0 0 0 0 0 0 0 0 0 0 0 0 0 0 0 0 0 0.25 0"/>
<feBlend mode="normal" in2="BackgroundImageFix" result="effect1_dropShadow_289_716"/>
<feBlend mode="normal" in="SourceGraphic" in2="effect1_dropShadow_289_716" result="shape"/>
</filter>
</defs>
</svg>
