<svg width="64" height="83" viewBox="0 0 64 83" fill="none" xmlns="http://www.w3.org/2000/svg">
<g filter="url(#filter0_d_289_716)">
<path d="M55 31.5427C55 47.3064 29 74 29 74C29 74 3 47.3064 3 31.5427C3 15.779 14.6406 3 29 3C43.3594 3 55 15.779 55 31.5427Z" fill="#777699"/>
</g>
<circle cx="29.5" cy="28.5" r="17.5" fill="white"/>
<path d="M29.1136 37.2386C28.2159 37.233 27.3494 37.0824 26.5142 36.7869C25.6847 36.4915 24.9403 36.0114 24.2812 35.3466C23.6222 34.6818 23.0994 33.8011 22.7131 32.7045C22.3324 31.608 22.142 30.2614 22.142 28.6648C22.1477 27.1989 22.3153 25.8892 22.6449 24.7358C22.9801 23.5767 23.4574 22.5937 24.0767 21.7869C24.7017 20.9801 25.4489 20.3665 26.3182 19.946C27.1875 19.5199 28.1619 19.3068 29.2415 19.3068C30.4063 19.3068 31.4347 19.5341 32.3267 19.9886C33.2188 20.4375 33.9347 21.0483 34.4744 21.821C35.0199 22.5938 35.3494 23.4602 35.4631 24.4205H31.8239C31.6818 23.8125 31.3835 23.3352 30.929 22.9886C30.4744 22.642 29.9119 22.4688 29.2415 22.4688C28.1051 22.4688 27.2415 22.9631 26.6506 23.9517C26.0653 24.9403 25.767 26.2841 25.7557 27.983H25.875C26.1364 27.4659 26.4886 27.0256 26.9318 26.6619C27.3807 26.2926 27.8892 26.0114 28.4574 25.8182C29.0312 25.6193 29.6364 25.5199 30.2727 25.5199C31.3068 25.5199 32.2273 25.7642 33.0341 26.2528C33.8409 26.7358 34.4773 27.4006 34.9432 28.2472C35.4091 29.0937 35.642 30.0625 35.642 31.1534C35.642 32.3352 35.3665 33.3864 34.8153 34.3068C34.2699 35.2273 33.5057 35.9489 32.5227 36.4716C31.5455 36.9886 30.4091 37.2443 29.1136 37.2386ZM29.0966 34.3409C29.6648 34.3409 30.1733 34.2045 30.6222 33.9318C31.071 33.6591 31.4233 33.2898 31.679 32.8239C31.9347 32.358 32.0625 31.8352 32.0625 31.2557C32.0625 30.6761 31.9347 30.1562 31.679 29.696C31.429 29.2358 31.0824 28.8693 30.6392 28.5966C30.196 28.3239 29.6903 28.1875 29.1222 28.1875C28.696 28.1875 28.3011 28.267 27.9375 28.4261C27.5795 28.5852 27.2642 28.8068 26.9915 29.0909C26.7244 29.375 26.5142 29.7045 26.3608 30.0795C26.2074 30.4489 26.1307 30.8437 26.1307 31.2642C26.1307 31.8267 26.2585 32.3409 26.5142 32.8068C26.7756 33.2727 27.1278 33.6449 27.571 33.9233C28.0199 34.2017 28.5284 34.3409 29.0966 34.3409Z" fill="#777699"/>
<defs>
<filter id="filter0_d_289_716" x="0" y="0" width="64" height="83" filterUnits="userSpaceOnUse" color-interpolation-filters="sRGB">
<feFlood flood-opacity="0" result="BackgroundImageFix"/>
<feColorMatrix in="SourceAlpha" type="matrix" values="0 0 0 0 0 0 0 0 0 0 0 0 0 0 0 0 0 0 127 0" result="hardAlpha"/>
<feOffset dx="3" dy="3"/>
<feGaussianBlur stdDeviation="3"/>
<feComposite in2="hardAlpha" operator="out"/>
<feColorMatrix type="matrix" values="0 0 0 0 0 0 0 0 0 0 0 0 0 0 0 0 0 0 0.25 0"/>
<feBlend mode="normal" in2="BackgroundImageFix" result="effect1_dropShadow_289_716"/>
<feBlend mode="normal" in="SourceGraphic" in2="effect1_dropShadow_289_716" result="shape"/>
</filter>
</defs>
</svg>
